<mxfile host="app.diagrams.net" modified="2023-12-06T01:30:50.050Z" agent="Mozilla/5.0 (Windows NT 10.0; Win64; x64) AppleWebKit/537.36 (KHTML, like Gecko) Chrome/119.0.0.0 Safari/537.36 Edg/119.0.0.0" etag="8_N-Dv6ZpIjZ1VU17Unk" version="22.1.5" type="device">
  <diagram name="Страница — 1" id="4zZFffurlrl-bASGn2sT">
    <mxGraphModel dx="2017" dy="1053" grid="1" gridSize="10" guides="1" tooltips="1" connect="1" arrows="1" fold="1" page="1" pageScale="1" pageWidth="3300" pageHeight="2339" math="0" shadow="0">
      <root>
        <mxCell id="0" />
        <mxCell id="1" parent="0" />
        <mxCell id="2JCTQVkfjINHfoPqzNRB-159" style="edgeStyle=orthogonalEdgeStyle;rounded=0;orthogonalLoop=1;jettySize=auto;html=1;exitX=1;exitY=0.5;exitDx=0;exitDy=0;entryX=0;entryY=0.5;entryDx=0;entryDy=0;endArrow=none;endFill=0;" edge="1" parent="1" source="2JCTQVkfjINHfoPqzNRB-2" target="2JCTQVkfjINHfoPqzNRB-90">
          <mxGeometry relative="1" as="geometry" />
        </mxCell>
        <mxCell id="2JCTQVkfjINHfoPqzNRB-2" value="&lt;font style=&quot;font-size: 14px;&quot;&gt;:TaskController&lt;/font&gt;" style="rounded=0;whiteSpace=wrap;html=1;" vertex="1" parent="1">
          <mxGeometry x="525" y="810" width="140" height="120" as="geometry" />
        </mxCell>
        <mxCell id="2JCTQVkfjINHfoPqzNRB-12" value="" style="endArrow=open;html=1;rounded=0;strokeWidth=1;jumpSize=6;startSize=4;endSize=3;endFill=0;" edge="1" parent="1">
          <mxGeometry width="50" height="50" relative="1" as="geometry">
            <mxPoint x="699.52" y="820" as="sourcePoint" />
            <mxPoint x="730" y="820" as="targetPoint" />
          </mxGeometry>
        </mxCell>
        <mxCell id="2JCTQVkfjINHfoPqzNRB-17" value="1:changeTask()" style="text;html=1;strokeColor=none;fillColor=none;align=center;verticalAlign=middle;whiteSpace=wrap;rounded=0;" vertex="1" parent="1">
          <mxGeometry x="690" y="790" width="60" height="30" as="geometry" />
        </mxCell>
        <mxCell id="2JCTQVkfjINHfoPqzNRB-65" value="" style="endArrow=open;html=1;rounded=0;strokeWidth=1;jumpSize=6;startSize=4;endSize=3;endFill=0;" edge="1" parent="1">
          <mxGeometry width="50" height="50" relative="1" as="geometry">
            <mxPoint x="1010" y="850" as="sourcePoint" />
            <mxPoint x="1050" y="850" as="targetPoint" />
          </mxGeometry>
        </mxCell>
        <mxCell id="2JCTQVkfjINHfoPqzNRB-67" value="2:changeTask()" style="text;html=1;strokeColor=none;fillColor=none;align=center;verticalAlign=middle;whiteSpace=wrap;rounded=0;" vertex="1" parent="1">
          <mxGeometry x="935" y="790" width="189.99" height="30" as="geometry" />
        </mxCell>
        <mxCell id="2JCTQVkfjINHfoPqzNRB-89" value="" style="endArrow=open;html=1;rounded=0;strokeWidth=1;jumpSize=6;startSize=4;endSize=3;endFill=0;" edge="1" parent="1">
          <mxGeometry width="50" height="50" relative="1" as="geometry">
            <mxPoint x="1315" y="835.5799999999999" as="sourcePoint" />
            <mxPoint x="1355" y="835.5799999999999" as="targetPoint" />
          </mxGeometry>
        </mxCell>
        <mxCell id="2JCTQVkfjINHfoPqzNRB-167" style="edgeStyle=orthogonalEdgeStyle;rounded=0;orthogonalLoop=1;jettySize=auto;html=1;exitX=0.5;exitY=1;exitDx=0;exitDy=0;endArrow=none;endFill=0;" edge="1" parent="1" source="2JCTQVkfjINHfoPqzNRB-90" target="2JCTQVkfjINHfoPqzNRB-145">
          <mxGeometry relative="1" as="geometry" />
        </mxCell>
        <mxCell id="2JCTQVkfjINHfoPqzNRB-90" value="&lt;font style=&quot;font-size: 14px;&quot;&gt;:TaskService&lt;/font&gt;" style="rounded=0;whiteSpace=wrap;html=1;" vertex="1" parent="1">
          <mxGeometry x="770" y="810" width="140" height="120" as="geometry" />
        </mxCell>
        <mxCell id="2JCTQVkfjINHfoPqzNRB-95" value="" style="endArrow=open;html=1;rounded=0;strokeWidth=1;jumpSize=6;startSize=4;endSize=3;endFill=0;" edge="1" parent="1">
          <mxGeometry width="50" height="50" relative="1" as="geometry">
            <mxPoint x="690" y="1040" as="sourcePoint" />
            <mxPoint x="650" y="1000" as="targetPoint" />
          </mxGeometry>
        </mxCell>
        <mxCell id="2JCTQVkfjINHfoPqzNRB-96" value="3:update()" style="text;html=1;strokeColor=none;fillColor=none;align=center;verticalAlign=middle;whiteSpace=wrap;rounded=0;" vertex="1" parent="1">
          <mxGeometry x="1240" y="770" width="189.99" height="30" as="geometry" />
        </mxCell>
        <mxCell id="2JCTQVkfjINHfoPqzNRB-99" value="&lt;span style=&quot;color: rgb(0, 0, 0); font-family: Helvetica; font-size: 12px; font-style: normal; font-variant-ligatures: normal; font-variant-caps: normal; font-weight: 400; letter-spacing: normal; orphans: 2; text-align: center; text-indent: 0px; text-transform: none; widows: 2; word-spacing: 0px; -webkit-text-stroke-width: 0px; background-color: rgb(251, 251, 251); text-decoration-thickness: initial; text-decoration-style: initial; text-decoration-color: initial; float: none; display: inline !important;&quot;&gt;6:setComplete&lt;/span&gt;" style="text;whiteSpace=wrap;html=1;rotation=45;" vertex="1" parent="1">
          <mxGeometry x="620" y="1020" width="90" height="40" as="geometry" />
        </mxCell>
        <mxCell id="2JCTQVkfjINHfoPqzNRB-105" value="" style="endArrow=open;html=1;rounded=0;strokeWidth=1;jumpSize=6;startSize=4;endSize=3;endFill=0;" edge="1" parent="1">
          <mxGeometry width="50" height="50" relative="1" as="geometry">
            <mxPoint x="480" y="835.58" as="sourcePoint" />
            <mxPoint x="440" y="835.58" as="targetPoint" />
          </mxGeometry>
        </mxCell>
        <mxCell id="2JCTQVkfjINHfoPqzNRB-108" value="&lt;font style=&quot;font-size: 14px;&quot;&gt;:PostgresTaskRepo&lt;/font&gt;" style="rounded=0;whiteSpace=wrap;html=1;" vertex="1" parent="1">
          <mxGeometry x="1140" y="810" width="140" height="120" as="geometry" />
        </mxCell>
        <mxCell id="2JCTQVkfjINHfoPqzNRB-112" value="4:TaskService.changeTask() = Task" style="text;html=1;strokeColor=none;fillColor=none;align=center;verticalAlign=middle;whiteSpace=wrap;rounded=0;" vertex="1" parent="1">
          <mxGeometry x="920" y="855" width="220" height="30" as="geometry" />
        </mxCell>
        <mxCell id="2JCTQVkfjINHfoPqzNRB-168" style="rounded=0;orthogonalLoop=1;jettySize=auto;html=1;exitX=0;exitY=0.5;exitDx=0;exitDy=0;entryX=0.5;entryY=1;entryDx=0;entryDy=0;startArrow=none;startFill=0;" edge="1" parent="1" source="2JCTQVkfjINHfoPqzNRB-145" target="2JCTQVkfjINHfoPqzNRB-2">
          <mxGeometry relative="1" as="geometry" />
        </mxCell>
        <mxCell id="2JCTQVkfjINHfoPqzNRB-145" value="&lt;font style=&quot;font-size: 14px;&quot;&gt;:Task&lt;/font&gt;" style="rounded=0;whiteSpace=wrap;html=1;" vertex="1" parent="1">
          <mxGeometry x="770" y="1030" width="140" height="120" as="geometry" />
        </mxCell>
        <mxCell id="2JCTQVkfjINHfoPqzNRB-146" value="" style="endArrow=open;html=1;rounded=0;strokeWidth=1;jumpSize=6;startSize=4;endSize=3;endFill=0;" edge="1" parent="1">
          <mxGeometry width="50" height="50" relative="1" as="geometry">
            <mxPoint x="830" y="960" as="sourcePoint" />
            <mxPoint x="830.48" y="1000" as="targetPoint" />
          </mxGeometry>
        </mxCell>
        <mxCell id="2JCTQVkfjINHfoPqzNRB-147" value="5:changeTask()" style="text;html=1;strokeColor=none;fillColor=none;align=center;verticalAlign=middle;whiteSpace=wrap;rounded=0;rotation=-90;" vertex="1" parent="1">
          <mxGeometry x="720.01" y="970" width="189.99" height="30" as="geometry" />
        </mxCell>
        <mxCell id="2JCTQVkfjINHfoPqzNRB-148" value="7:onCompleteTask()" style="text;html=1;strokeColor=none;fillColor=none;align=center;verticalAlign=middle;whiteSpace=wrap;rounded=0;" vertex="1" parent="1">
          <mxGeometry x="420" y="810" width="60" height="30" as="geometry" />
        </mxCell>
        <mxCell id="2JCTQVkfjINHfoPqzNRB-150" value="" style="endArrow=open;html=1;rounded=0;strokeWidth=1;jumpSize=6;startSize=4;endSize=3;endFill=0;" edge="1" parent="1">
          <mxGeometry width="50" height="50" relative="1" as="geometry">
            <mxPoint x="1050" y="880" as="sourcePoint" />
            <mxPoint x="1010" y="880" as="targetPoint" />
          </mxGeometry>
        </mxCell>
        <mxCell id="2JCTQVkfjINHfoPqzNRB-151" value="" style="endArrow=open;html=1;rounded=0;strokeWidth=1;jumpSize=6;startSize=4;endSize=3;endFill=0;" edge="1" parent="1">
          <mxGeometry width="50" height="50" relative="1" as="geometry">
            <mxPoint x="699.52" y="860" as="sourcePoint" />
            <mxPoint x="730" y="860" as="targetPoint" />
          </mxGeometry>
        </mxCell>
        <mxCell id="2JCTQVkfjINHfoPqzNRB-152" value="8:deleteTask()" style="text;html=1;strokeColor=none;fillColor=none;align=center;verticalAlign=middle;whiteSpace=wrap;rounded=0;" vertex="1" parent="1">
          <mxGeometry x="690" y="830" width="60" height="30" as="geometry" />
        </mxCell>
        <mxCell id="2JCTQVkfjINHfoPqzNRB-153" value="" style="endArrow=open;html=1;rounded=0;strokeWidth=1;jumpSize=6;startSize=4;endSize=3;endFill=0;" edge="1" parent="1">
          <mxGeometry width="50" height="50" relative="1" as="geometry">
            <mxPoint x="1010" y="820" as="sourcePoint" />
            <mxPoint x="1050" y="820" as="targetPoint" />
          </mxGeometry>
        </mxCell>
        <mxCell id="2JCTQVkfjINHfoPqzNRB-154" value="&lt;span style=&quot;color: rgb(0, 0, 0); font-family: Helvetica; font-size: 12px; font-style: normal; font-variant-ligatures: normal; font-variant-caps: normal; font-weight: 400; letter-spacing: normal; orphans: 2; text-align: center; text-indent: 0px; text-transform: none; widows: 2; word-spacing: 0px; -webkit-text-stroke-width: 0px; background-color: rgb(251, 251, 251); text-decoration-thickness: initial; text-decoration-style: initial; text-decoration-color: initial; float: none; display: inline !important;&quot;&gt;9:deleteTask()&lt;/span&gt;" style="text;whiteSpace=wrap;html=1;" vertex="1" parent="1">
          <mxGeometry x="990" y="826" width="80" height="20" as="geometry" />
        </mxCell>
        <mxCell id="2JCTQVkfjINHfoPqzNRB-155" value="10:delete()" style="text;html=1;strokeColor=none;fillColor=none;align=center;verticalAlign=middle;whiteSpace=wrap;rounded=0;" vertex="1" parent="1">
          <mxGeometry x="1240" y="810" width="189.99" height="30" as="geometry" />
        </mxCell>
        <mxCell id="2JCTQVkfjINHfoPqzNRB-156" value="" style="endArrow=open;html=1;rounded=0;strokeWidth=1;jumpSize=6;startSize=4;endSize=3;endFill=0;" edge="1" parent="1">
          <mxGeometry width="50" height="50" relative="1" as="geometry">
            <mxPoint x="1310" y="804.5799999999999" as="sourcePoint" />
            <mxPoint x="1355" y="804.58" as="targetPoint" />
          </mxGeometry>
        </mxCell>
        <mxCell id="2JCTQVkfjINHfoPqzNRB-157" value="" style="endArrow=open;html=1;rounded=0;strokeWidth=1;jumpSize=6;startSize=4;endSize=3;endFill=0;" edge="1" parent="1">
          <mxGeometry width="50" height="50" relative="1" as="geometry">
            <mxPoint x="1049.99" y="917" as="sourcePoint" />
            <mxPoint x="1009.99" y="917" as="targetPoint" />
          </mxGeometry>
        </mxCell>
        <mxCell id="2JCTQVkfjINHfoPqzNRB-158" value="11:TaskService.deleteTask() = True" style="text;html=1;strokeColor=none;fillColor=none;align=center;verticalAlign=middle;whiteSpace=wrap;rounded=0;" vertex="1" parent="1">
          <mxGeometry x="920" y="890" width="220" height="30" as="geometry" />
        </mxCell>
        <mxCell id="2JCTQVkfjINHfoPqzNRB-160" value="" style="endArrow=none;html=1;rounded=0;exitX=0.993;exitY=0.146;exitDx=0;exitDy=0;exitPerimeter=0;entryX=0.005;entryY=0.152;entryDx=0;entryDy=0;entryPerimeter=0;" edge="1" parent="1" source="2JCTQVkfjINHfoPqzNRB-2" target="2JCTQVkfjINHfoPqzNRB-90">
          <mxGeometry width="50" height="50" relative="1" as="geometry">
            <mxPoint x="910" y="840" as="sourcePoint" />
            <mxPoint x="960" y="790" as="targetPoint" />
          </mxGeometry>
        </mxCell>
        <mxCell id="2JCTQVkfjINHfoPqzNRB-161" value="" style="endArrow=none;html=1;rounded=0;exitX=1.012;exitY=0.14;exitDx=0;exitDy=0;exitPerimeter=0;entryX=0.018;entryY=0.14;entryDx=0;entryDy=0;entryPerimeter=0;" edge="1" parent="1" source="2JCTQVkfjINHfoPqzNRB-90" target="2JCTQVkfjINHfoPqzNRB-108">
          <mxGeometry width="50" height="50" relative="1" as="geometry">
            <mxPoint x="950" y="830" as="sourcePoint" />
            <mxPoint x="1000" y="780" as="targetPoint" />
          </mxGeometry>
        </mxCell>
        <mxCell id="2JCTQVkfjINHfoPqzNRB-162" value="" style="endArrow=none;html=1;rounded=0;exitX=1.012;exitY=0.376;exitDx=0;exitDy=0;exitPerimeter=0;entryX=-0.011;entryY=0.383;entryDx=0;entryDy=0;entryPerimeter=0;" edge="1" parent="1" source="2JCTQVkfjINHfoPqzNRB-90" target="2JCTQVkfjINHfoPqzNRB-108">
          <mxGeometry width="50" height="50" relative="1" as="geometry">
            <mxPoint x="950" y="830" as="sourcePoint" />
            <mxPoint x="1000" y="780" as="targetPoint" />
          </mxGeometry>
        </mxCell>
        <mxCell id="2JCTQVkfjINHfoPqzNRB-163" value="" style="endArrow=none;html=1;rounded=0;exitX=1.004;exitY=0.671;exitDx=0;exitDy=0;exitPerimeter=0;entryX=-0.005;entryY=0.619;entryDx=0;entryDy=0;entryPerimeter=0;" edge="1" parent="1" source="2JCTQVkfjINHfoPqzNRB-90">
          <mxGeometry width="50" height="50" relative="1" as="geometry">
            <mxPoint x="913.22" y="892.5200000000002" as="sourcePoint" />
            <mxPoint x="1140.0000000000002" y="890" as="targetPoint" />
          </mxGeometry>
        </mxCell>
        <mxCell id="2JCTQVkfjINHfoPqzNRB-164" value="" style="endArrow=none;html=1;rounded=0;exitX=1.006;exitY=0.938;exitDx=0;exitDy=0;exitPerimeter=0;entryX=0;entryY=0.938;entryDx=0;entryDy=0;entryPerimeter=0;" edge="1" parent="1" source="2JCTQVkfjINHfoPqzNRB-90" target="2JCTQVkfjINHfoPqzNRB-108">
          <mxGeometry width="50" height="50" relative="1" as="geometry">
            <mxPoint x="950" y="830" as="sourcePoint" />
            <mxPoint x="1000" y="780" as="targetPoint" />
          </mxGeometry>
        </mxCell>
        <mxCell id="2JCTQVkfjINHfoPqzNRB-165" style="edgeStyle=orthogonalEdgeStyle;rounded=0;orthogonalLoop=1;jettySize=auto;html=1;exitX=1;exitY=0.25;exitDx=0;exitDy=0;entryX=1;entryY=0.75;entryDx=0;entryDy=0;endArrow=none;endFill=0;" edge="1" parent="1" source="2JCTQVkfjINHfoPqzNRB-108" target="2JCTQVkfjINHfoPqzNRB-108">
          <mxGeometry relative="1" as="geometry">
            <Array as="points">
              <mxPoint x="1390" y="840" />
              <mxPoint x="1390" y="900" />
            </Array>
          </mxGeometry>
        </mxCell>
        <mxCell id="2JCTQVkfjINHfoPqzNRB-170" style="edgeStyle=orthogonalEdgeStyle;rounded=0;orthogonalLoop=1;jettySize=auto;html=1;exitX=0;exitY=0.25;exitDx=0;exitDy=0;entryX=0;entryY=0.75;entryDx=0;entryDy=0;endArrow=none;endFill=0;" edge="1" parent="1" source="2JCTQVkfjINHfoPqzNRB-2" target="2JCTQVkfjINHfoPqzNRB-2">
          <mxGeometry relative="1" as="geometry">
            <Array as="points">
              <mxPoint x="390" y="840" />
              <mxPoint x="390" y="900" />
            </Array>
          </mxGeometry>
        </mxCell>
      </root>
    </mxGraphModel>
  </diagram>
</mxfile>
